<svg id="Component_4_1" data-name="Component 4 – 1" xmlns="http://www.w3.org/2000/svg" width="1743" height="638" viewBox="0 0 1743 638">
  <text id="PIPOCA" transform="translate(0 518)" fill="#fff" font-size="480" font-family="SegoeUI-Bold, Segoe UI" font-weight="700"><tspan x="0" y="0">PIPOCA</tspan></text>
  <g id="Component_3_2" data-name="Component 3 – 2" transform="translate(709 136)">
    <g id="Ellipse_1" data-name="Ellipse 1" transform="translate(14 15)" fill="#fff" stroke="#707070" stroke-width="1">
      <ellipse cx="17.5" cy="17" rx="17.5" ry="17" stroke="none"/>
      <ellipse cx="17.5" cy="17" rx="17" ry="16.5" fill="none"/>
    </g>
    <g id="Component_2_1" data-name="Component 2 – 1">
      <g id="Path_23" data-name="Path 23" transform="translate(133.598 120)" fill="#fff">
        <path d="M 102.8720016479492 249.5055389404297 C 99.01461791992188 249.505615234375 95.47734832763672 249.2579650878906 93.40981292724609 248.8430328369141 C 89.85111999511719 248.1289978027344 84.53558349609375 245.0545349121094 79.86781311035156 241.010498046875 C 74.29116058349609 236.1790008544922 70.18569183349609 230.5529174804688 68.30773162841797 225.1686096191406 C 65.41957855224609 216.8876495361328 60.45503997802734 213.6357727050781 55.97957992553711 211.5469207763672 C 54.33781051635742 210.7806854248047 52.73061752319336 210.3921508789063 51.20269393920898 210.3921508789063 C 46.32781219482422 210.3921508789063 42.67254257202148 214.2987213134766 39.13761901855469 218.0766448974609 C 37.28150177001953 220.0603790283203 35.3621940612793 222.1116180419922 33.26465606689453 223.6282348632813 C 30.94742584228516 225.3036956787109 28.66961860656738 226.1181488037109 26.30108070373535 226.1181488037109 C 24.5897331237793 226.1181488037109 22.83523368835449 225.7117309570313 20.93742561340332 224.8756866455078 C 15.84000301361084 222.6301879882813 11.93442630767822 219.6571502685547 8.646388053894043 215.5193786621094 C 5.668041706085205 211.7713470458984 3.452810764312744 207.3839569091797 1.107541561126709 202.7389221191406 C -1.607958436012268 197.3606872558594 -4.685766220092773 191.2648773193359 -9.536189079284668 185.0263824462891 C -11.61934280395508 182.3476104736328 -18.08499717712402 179.7998809814453 -24.93030548095703 177.1025390625 C -28.80445861816406 175.5759582519531 -32.81049728393555 173.9974212646484 -35.89461135864258 172.4171142578125 C -39.25699615478516 170.6942291259766 -41.07399749755859 169.2052307128906 -41.44945907592773 167.8651123046875 C -42.3643798828125 164.6000366210938 -44.85534286499023 162.0811157226563 -47.26430511474609 159.6451110839844 C -49.74984359741211 157.1316833496094 -52.0975341796875 154.7576446533203 -52.0975341796875 152 C -52.0975341796875 150.5903015136719 -52.49053573608398 143.1763458251953 -60.24918746948242 135.6413116455078 C -65.93126678466797 130.1239929199219 -59.73418807983398 119.7229995727539 -54.75476455688477 111.3656158447266 C -53.81276702880859 109.7845764160156 -52.92299652099609 108.2912292480469 -52.15976715087891 106.9083786010742 C -51.55630493164063 105.815071105957 -50.84392166137695 104.5530776977539 -50.01903533935547 103.0917663574219 C -43.2998046875 91.18846130371094 -30.79276657104492 69.03188323974609 -29.43280410766602 53.37653732299805 L -29.42849731445313 53.32711410522461 L -29.43399620056152 53.27776718139648 C -29.85211181640625 49.53388214111328 -29.47541999816895 45.77099609375 -28.28238105773926 41.77418899536133 C -27.22722816467285 38.23930358886719 -25.70049667358398 35.01311111450195 -24.22399711608887 31.89315032958984 C -21.82830429077148 26.8308048248291 -19.56545829772949 22.0491886138916 -20.16338157653809 17.27118873596191 C -20.80876541137695 12.11434364318848 -21.18445777893066 10.09495830535889 -21.34488105773926 9.232650756835938 C -21.3901252746582 8.989604949951172 -21.42655372619629 8.793769836425781 -21.43052864074707 8.723040580749512 C -21.4244499206543 8.708956718444824 -21.41513633728027 8.688698768615723 -21.40718841552734 8.671381950378418 C -21.21565055847168 8.254189491271973 -20.76711273193359 7.277227878570557 -20.16211318969727 1.384343266487122 C -20.08749771118164 0.6574971079826355 -20.27180480957031 0.1076125204563141 -20.46692085266113 -0.4745413362979889 C -20.86053466796875 -1.648849010467529 -21.39961242675781 -3.257156610488892 -20.17618942260742 -7.871887683868408 C -19.2689208984375 -11.2941951751709 -16.58915138244629 -14.73769474029541 -11.9836893081665 -18.39911842346191 C -7.992342948913574 -21.57234954833984 -3.170112371444702 -24.39619445800781 0.7045800089836121 -26.66519546508789 C 6.240810871124268 -29.90715599060059 9.138887405395508 -31.67338752746582 9.335080146789551 -33.2723503112793 C 10.09092617034912 -39.43338775634766 10.34658050537109 -44.26904296875 10.55200290679932 -48.15457916259766 C 10.72896480560303 -51.50177383422852 10.86873340606689 -54.14558029174805 11.2678108215332 -56.10765838623047 C 11.67311859130859 -58.10038757324219 12.31558036804199 -59.30900192260742 13.41615676879883 -60.14900207519531 C 15.79888725280762 -61.96769332885742 20.54611778259277 -62.16673278808594 30.0690803527832 -62.16673278808594 C 33.42108154296875 -62.16673278808594 34.95957946777344 -62.08465576171875 35.94842529296875 -61.85300445556641 C 36.90554046630859 -61.62884902954102 37.29823303222656 -61.27123260498047 38.08053970336914 -60.55877304077148 C 39.37834930419922 -59.37688827514648 41.5504264831543 -57.39877319335938 48.52811813354492 -54.2119255065918 C 55.67284774780273 -50.9489631652832 66.85992431640625 -43.48707962036133 77.67869567871094 -36.27088928222656 C 83.32123565673828 -32.50727081298828 88.65084838867188 -28.95234870910645 93.04904174804688 -26.24111747741699 C 97.07369232177734 -23.76015663146973 101.4215774536133 -23.49396514892578 105.6263122558594 -23.23654174804688 C 107.8994674682617 -23.09734916687012 110.2499618530273 -22.95346450805664 112.5170059204102 -22.45881080627441 C 115.0364608764648 -21.90908050537109 117.1932754516602 -20.97196388244629 119.1106567382813 -19.59396362304688 C 119.8612747192383 -19.05454063415527 120.7143096923828 -18.78100204467773 121.6460037231445 -18.78100204467773 C 124.6909255981445 -18.78100204467773 128.167236328125 -21.63204193115234 131.8477020263672 -24.65050315856934 C 132.5032348632813 -25.18811798095703 133.1810760498047 -25.74404144287109 133.8481597900391 -26.27573394775391 C 134.7368469238281 -26.98407936096191 136.3552398681641 -27.32842636108398 138.7957305908203 -27.32842636108398 C 141.1243896484375 -27.32842636108398 143.9548034667969 -27.01338768005371 146.6920471191406 -26.70877265930176 C 148.5580444335938 -26.50107955932617 150.4875030517578 -26.28634834289551 152.2751922607422 -26.16781044006348 C 154.2279968261719 -26.03892517089844 157.8204956054688 -24.98323440551758 162.1316986083984 -23.27146530151367 C 166.0644989013672 -21.70988655090332 169.0889587402344 -20.19004058837891 169.7408905029297 -19.62281036376953 C 176.5692291259766 -13.68161869049072 179.7766571044922 -8.142003059387207 180.4656524658203 -1.099618196487427 C 181.1591949462891 5.98914098739624 179.2620239257813 14.71290111541748 175.9740600585938 26.48808097839355 C 175.0064849853516 28.50594711303711 177.2240753173828 30.34628105163574 178.9830780029297 31.55849647521973 C 181.3479614257813 33.18822860717773 184.7758941650391 34.90849685668945 188.7450866699219 36.90042114257813 C 197.3558502197266 41.22172927856445 208.0722351074219 46.59968948364258 212.3081970214844 53.59234237670898 C 213.9505462646484 56.30353546142578 210.9881896972656 61.01853561401367 207.5580749511719 66.47799682617188 C 202.8583831787109 73.95819091796875 197.0095062255859 83.26753234863281 200.1061248779297 92.16434478759766 L 200.1545104980469 92.30338287353516 L 200.2705078125 92.39399719238281 C 203.0060729980469 94.53134155273438 205.4549255371094 96.04850006103516 207.8231506347656 97.51572418212891 C 211.9669647216797 100.0830001831055 215.5457305908203 102.3001861572266 219.0007019042969 106.9643783569336 C 223.4478454589844 112.9673843383789 226.8432312011719 120.3610763549805 228.4713897705078 124.2340774536133 C 230.91650390625 130.0504913330078 232.2358551025391 134.6372985839844 232.2358551025391 136 C 232.2358551025391 139.4416198730469 231.7106170654297 142.4078369140625 230.6301116943359 145.0681457519531 C 229.6625823974609 147.4504241943359 228.2592315673828 149.5513458251953 226.3398895263672 151.4909515380859 C 222.7214965820313 155.1475372314453 217.7948150634766 157.6881561279297 212.5788879394531 160.3779602050781 C 208.4617767333984 162.5010681152344 204.2044677734375 164.6965026855469 200.2810363769531 167.5979919433594 C 195.6189270019531 171.0460815429688 195.1605377197266 171.2781524658203 192.6166534423828 172.5659942626953 C 191.3995819091797 173.1821441650391 189.7326965332031 174.0260314941406 186.9297332763672 175.5614929199219 L 186.7540435791016 175.6577301025391 L 186.6934204101563 175.8486480712891 C 185.8348846435547 178.5521545410156 185.4421539306641 181.0460815429688 185.0956573486328 183.2463836669922 C 184.6513519287109 186.0677337646484 184.2676239013672 188.5043487548828 183.0773468017578 190.7321166992188 C 181.7763824462891 193.1669616699219 179.5948486328125 195.1236877441406 176.2118835449219 196.8900299072266 C 167.6978149414063 201.3360748291016 165.6412353515625 208.0462646484375 163.8267669677734 213.9665679931641 C 162.9154663085938 216.9400329589844 162.0547027587891 219.7486114501953 160.4249267578125 221.7082214355469 C 158.6517333984375 223.8402709960938 156.0726165771484 224.8332672119141 152.3082733154297 224.8332672119141 C 149.0435028076172 224.8332672119141 145.6097412109375 228.7439575195313 141.2623901367188 233.6950378417969 C 138.9085083007813 236.3758087158203 136.2406158447266 239.4142608642578 133.1925048828125 242.3039245605469 C 127.5921936035156 247.6133422851563 113.8578491210938 249.5053405761719 102.8720016479492 249.5055389404297 Z" stroke="none"/>
        <path d="M 30.06910705566406 -61.66677856445313 C 25.19889831542969 -61.66677856445313 21.65310668945313 -61.61044311523438 19.02801513671875 -61.33001708984375 C 16.42219543457031 -61.05165100097656 14.78497314453125 -60.56484985351563 13.71952819824219 -59.75160217285156 C 12.72355651855469 -58.99139404296875 12.13685607910156 -57.87185668945313 11.75776672363281 -56.008056640625 C 11.36610412597656 -54.08222961425781 11.22718811035156 -51.45477294921875 11.05131530761719 -48.12823486328125 C 10.84544372558594 -44.23501586914063 10.58927917480469 -39.3897705078125 9.831314086914063 -33.21148681640625 C 9.605850219726563 -31.3740234375 6.79144287109375 -29.65023803710938 0.957183837890625 -26.23373413085938 C -2.903854370117188 -23.97273254394531 -7.709060668945313 -21.1588134765625 -11.672607421875 -18.00773620605469 C -16.19073486328125 -14.41569519042969 -18.81422424316406 -11.05831909179688 -19.69290161132813 -7.7437744140625 C -20.8779296875 -3.273941040039063 -20.36639404296875 -1.747772216796875 -19.99288940429688 -0.6334381103515625 C -19.7894287109375 -0.0265655517578125 -19.5791015625 0.60101318359375 -19.66473388671875 1.435348510742188 C -20.24320983886719 7.069976806640625 -20.69656372070313 8.3067626953125 -20.9156494140625 8.798187255859375 C -20.90081787109375 8.886138916015625 -20.87750244140625 9.011367797851563 -20.85334777832031 9.141143798828125 C -20.69210815429688 10.0078125 -20.31451416015625 12.03739929199219 -19.66726684570313 17.2091064453125 C -19.05126953125 22.13151550292969 -21.34434509277344 26.97702026367188 -23.77206420898438 32.1070556640625 C -25.24055480957031 35.21009826660156 -26.75901794433594 38.41880798339844 -27.80326843261719 41.91719055175781 C -28.97673034667969 45.84848022460938 -29.34759521484375 49.54640197753906 -28.93705749511719 53.22227478027344 L -28.92605590820313 53.32093811035156 L -28.93464660644531 53.41981506347656 C -30.30397033691406 69.18318939208984 -42.84573364257813 91.40118408203125 -49.58355712890625 103.3374786376953 C -50.40780639648438 104.7976837158203 -51.11968994140625 106.0587310791016 -51.72201538085938 107.1499328613281 C -52.48922729492188 108.5400161743164 -53.38105773925781 110.0368118286133 -54.32522583007813 111.6215209960938 C -56.81343078613281 115.7976455688477 -59.63360595703125 120.5309371948242 -61.06831359863281 124.8683929443359 C -61.82572937011719 127.1582260131836 -62.12419128417969 129.0891876220703 -61.98068237304688 130.7715606689453 C -61.82476806640625 132.5994873046875 -61.14443969726563 134.0750579833984 -59.90081787109375 135.2826080322266 C -51.99784851074219 142.9578094482422 -51.59751892089844 150.5549774169922 -51.59751892089844 151.9999694824219 C -51.59751892089844 154.5521392822266 -49.32002258300781 156.855224609375 -46.90876770019531 159.2935638427734 C -44.45506286621094 161.7747650146484 -41.9178466796875 164.3404846191406 -40.96797180175781 167.730224609375 C -40.55555725097656 169.2023468017578 -37.85743713378906 170.8495178222656 -35.66659545898438 171.9721069335938 C -32.60435485839844 173.5412292480469 -28.60989379882813 175.1151885986328 -24.74697875976563 176.6373138427734 C -17.836181640625 179.3604431152344 -11.30868530273438 181.9325561523438 -9.141433715820313 184.7194366455078 C -4.261276245117188 190.9961853027344 -1.171890258789063 197.1149749755859 1.553817749023438 202.5134735107422 C 3.887237548828125 207.1350250244141 6.091278076171875 211.5002746582031 9.037811279296875 215.2082672119141 C 12.2734375 219.2800598144531 16.11865234375 222.2065582275391 21.13897705078125 224.4181060791016 C 22.97201538085938 225.2255554199219 24.66056823730469 225.6181030273438 26.30110168457031 225.6181030273438 C 28.59210205078125 225.6181030273438 30.71173095703125 224.8570556640625 32.97169494628906 223.2230224609375 C 35.03010559082031 221.7347259521484 36.93260192871094 219.7014007568359 38.77248382568359 217.7350158691406 C 42.38027191162109 213.8792266845703 46.11090087890625 209.8921508789063 51.20269012451172 209.8921508789063 C 52.80431365966797 209.8921508789063 54.48260498046875 210.2964324951172 56.19106292724609 211.0938110351563 C 60.76106262207031 213.2268524169922 65.83052062988281 216.5475158691406 68.77985382080078 225.0038909912109 C 70.62952423095703 230.3070220947266 74.68356323242188 235.8573913574219 80.19522857666016 240.6325988769531 C 84.80239868164063 244.6241455078125 90.02806091308594 247.6545104980469 93.50818634033203 248.3527679443359 C 95.54485321044922 248.7615203857422 99.04539489746094 249.0055236816406 102.8721008300781 249.0055236816406 C 108.7447738647461 249.0055236816406 114.7004852294922 248.4595947265625 119.6421051025391 247.4683532714844 C 122.5712738037109 246.8808135986328 125.151481628418 246.1389770507813 127.3111038208008 245.2634735107422 C 129.6678161621094 244.3080596923828 131.5308532714844 243.1902313232422 132.8484802246094 241.9410247802734 C 135.8799438476563 239.0671081542969 138.5398559570313 236.0378112792969 140.8866119384766 233.3651428222656 C 143.0834350585938 230.8632202148438 144.9807281494141 228.7024841308594 146.7775573730469 227.0998992919922 C 148.8938598632813 225.2123565673828 150.6513061523438 224.3332214355469 152.3082733154297 224.3332214355469 C 160.1266021728516 224.3332214355469 161.4781494140625 219.9234313964844 163.3487243652344 213.8200225830078 C 165.1006469726563 208.1037292480469 167.2810211181641 200.9896392822266 175.9804840087891 196.44677734375 C 183.0957336425781 192.731689453125 183.7274475097656 188.7203979492188 184.6017303466797 183.1685638427734 C 184.9509887695313 180.9507293701172 185.3468627929688 178.4369354248047 186.2169036865234 175.6973114013672 L 186.3381500244141 175.3154296875 L 186.6895599365234 175.1229400634766 C 189.4995574951172 173.5836029052734 191.1706085205078 172.7376403808594 192.3907318115234 172.1199340820313 C 194.9027709960938 170.8481903076172 195.3554382324219 170.6190185546875 199.9837646484375 167.1959381103516 C 203.9395141601563 164.2705688476563 208.2149810791016 162.0657653808594 212.3496856689453 159.9335632324219 C 222.7520141601563 154.5691833496094 231.7358093261719 149.9364013671875 231.7358093261719 135.9999694824219 C 231.7358093261719 133.3399810791016 226.2848510742188 117.6368103027344 218.5989379882813 107.2619781494141 C 215.2010192871094 102.6748123168945 211.6600189208984 100.4810180664063 207.5599060058594 97.94081115722656 C 205.1802673339844 96.46656036376953 202.7196502685547 94.94210052490234 199.9626922607422 92.78801727294922 L 199.7306823730469 92.60677337646484 L 199.6339416503906 92.32872772216797 C 196.4582672119141 83.20497894287109 202.3780670166016 73.78281402587891 207.1346893310547 66.21202087402344 C 208.8726501464844 63.44577026367188 210.5142669677734 60.83293914794922 211.4514465332031 58.63426208496094 C 212.3887634277344 56.43531799316406 212.5251007080078 54.91548156738281 211.8805236816406 53.85139465332031 C 207.7191925048828 46.98197937011719 197.0742340087891 41.63981628417969 188.5208587646484 37.34730529785156 C 184.5350189208984 35.34706115722656 181.0927734375 33.61956787109375 178.6993560791016 31.97018432617188 C 177.3534393310547 31.04264831542969 176.4332275390625 30.1973876953125 175.88623046875 29.38613891601563 C 175.0135650634766 28.09184265136719 175.1811370849609 27.01548767089844 175.503662109375 26.31364440917969 C 178.7691040039063 14.6146240234375 180.6531829833984 5.952224731445313 179.968017578125 -1.050979614257813 C 179.2926025390625 -7.954559326171875 176.1358489990234 -13.39593505859375 169.4126892089844 -19.24560546875 C 168.8058166503906 -19.77365112304688 165.7789764404297 -21.28530883789063 161.9471893310547 -22.80677795410156 C 157.7451934814453 -24.47518920898438 154.1172332763672 -25.54518127441406 152.2421417236328 -25.66897583007813 C 150.4433135986328 -25.78819274902344 148.5082244873047 -26.00357055664063 146.6368103027344 -26.21185302734375 C 143.9131011962891 -26.5150146484375 141.0966949462891 -26.82847595214844 138.7957305908203 -26.82844543457031 C 136.5051116943359 -26.82839965820313 134.9453125 -26.51089477539063 134.1597747802734 -25.884765625 C 133.4954833984375 -25.35531616210938 132.8191070556641 -24.80056762695313 132.1649780273438 -24.26409912109375 C 128.4133605957031 -21.18722534179688 124.8697738647461 -18.28102111816406 121.6460266113281 -18.28102111816406 C 120.6074829101563 -18.28102111816406 119.6562728881836 -18.58615112304688 118.8188934326172 -19.18797302246094 C 114.6513977050781 -22.18305969238281 110.2527313232422 -22.45236206054688 105.5957717895508 -22.73748779296875 C 101.3295211791992 -22.99868774414063 96.91806030273438 -23.26876831054688 92.78668975830078 -25.81552124023438 C 88.38072967529297 -28.53157043457031 83.04727172851563 -32.08897399902344 77.40068817138672 -35.85531616210938 C 67.10169219970703 -42.72480773925781 55.42856597900391 -50.51089477539063 48.32044219970703 -53.75714111328125 C 41.27152252197266 -56.97648620605469 39.063232421875 -58.98751831054688 37.74385833740234 -60.18910217285156 C 36.98077392578125 -60.88406372070313 36.66493225097656 -61.17169189453125 35.83439636230469 -61.36622619628906 C 34.89906311035156 -61.58531188964844 33.33651733398438 -61.66677856445313 30.06910705566406 -61.66677856445313 M 30.06910705566406 -62.66677856445313 C 41.73485565185547 -62.66677856445313 33.31977844238281 -61.70747375488281 48.73585510253906 -54.66677856445313 C 59.70681762695313 -49.65640258789063 80.60139465332031 -34.50177001953125 93.31143951416016 -26.66677856445313 C 101.5384826660156 -21.59530639648438 110.9983139038086 -26.03990173339844 119.4024810791016 -20.00001525878906 C 120.0968246459961 -19.50100708007813 120.8487548828125 -19.28102111816406 121.6460342407227 -19.28102111816406 C 125.048957824707 -19.28102111816406 129.290771484375 -23.28260803222656 133.5364837646484 -26.66677856445313 C 134.6263427734375 -27.53543090820313 136.5070037841797 -27.82838439941406 138.7957153320313 -27.82843017578125 C 142.7380218505859 -27.82850646972656 147.8920593261719 -26.95951843261719 152.3082733154297 -26.66677856445313 C 156.8976898193359 -26.36381530761719 168.4864349365234 -21.37705993652344 170.0691070556641 -20.00001525878906 C 183.9171447753906 -7.951187133789063 183.1474456787109 2.666732788085938 176.4433135986328 26.66673278808594 C 173.4599456787109 32.60002136230469 204.5854339599609 39.87876892089844 212.7358093261719 53.33326721191406 C 216.9188232421875 60.2386474609375 195.2764434814453 76.76734924316406 200.5783538818359 92.00002288818359 C 208.1808471679688 97.94001770019531 213.9405670166016 99.29319000244141 219.4024810791016 106.6667251586914 C 227.0375213623047 116.9728927612305 232.7358093261719 132.9123077392578 232.7358093261719 135.9999694824219 C 232.7358093261719 156.2364807128906 214.4153137207031 157.7671813964844 200.5783538818359 167.9999694824219 C 193.6599426269531 173.1167755126953 195.8735198974609 171.232177734375 187.1699829101563 175.9999847412109 C 184.1772308349609 185.4239349365234 186.990478515625 191.8262329101563 176.4433135986328 197.3332214355469 C 159.2071075439453 206.3339385986328 168.8678131103516 225.3332214355469 152.3082733154297 225.3332214355469 C 147.5899047851563 225.3332214355469 142.1439819335938 234.5066528320313 133.5364837646484 242.6667327880859 C 127.5940093994141 248.3005981445313 113.1732482910156 250.0055236816406 102.8720855712891 250.0055236816406 C 98.76288604736328 250.0055236816406 95.31063079833984 249.7344360351563 93.31143951416016 249.3332214355469 C 86.29364776611328 247.9251403808594 72.09844207763672 237.5550537109375 67.83564758300781 225.3332214355469 C 64.88494110107422 216.8729858398438 59.75789642333984 213.8621826171875 55.76810455322266 211.9999694824219 C 54.11609649658203 211.2289581298828 52.60469055175781 210.8921356201172 51.20266723632813 210.8921356201172 C 41.61274719238281 210.8921356201172 37.05233764648438 226.6181182861328 26.30110168457031 226.6181182861328 C 24.61299133300781 226.6181182861328 22.77256774902344 226.2304534912109 20.73585510253906 225.3332214355469 C 2.923858642578125 217.4867248535156 3.238815307617188 202.2718963623047 -9.930892944335938 185.3332214355469 C -14.29206848144531 179.7251892089844 -40.22085571289063 174.1039428710938 -41.93089294433594 167.9999694824219 C -43.77543640136719 161.4176025390625 -52.59751892089844 157.6665954589844 -52.59751892089844 151.9999694824219 C -52.59751892089844 149.2649841308594 -53.8446044921875 142.5582733154297 -60.59751892089844 135.9999694824219 C -67.67131042480469 129.1313171386719 -57.44343566894531 115.4468536376953 -52.59751892089844 106.6667251586914 C -47.06130981445313 96.63718414306641 -31.44706726074219 70.78676605224609 -29.93089294433594 53.33326721191406 C -31.667724609375 37.78193664550781 -19.37422180175781 27.60406494140625 -20.65951538085938 17.33326721191406 C -22.61672973632813 1.69451904296875 -22.07072448730469 15.07876586914063 -20.65951538085938 1.333221435546875 C -20.45655822753906 -0.64385986328125 -22.49693298339844 -1.069320678710938 -20.65951538085938 -8.000015258789063 C -17.3170166015625 -20.6082763671875 8.362350463867188 -29.45060729980469 8.838775634765625 -33.33326721191406 C 12.27114868164063 -61.3114013671875 5.4017333984375 -62.66677856445313 30.06910705566406 -62.66677856445313 Z" stroke="none" fill="#707070"/>
      </g>
      <g id="Ellipse_2" data-name="Ellipse 2" transform="translate(382 128)" fill="#fff" stroke="#707070" stroke-width="1">
        <ellipse cx="17.5" cy="17" rx="17.5" ry="17" stroke="none"/>
        <ellipse cx="17.5" cy="17" rx="17" ry="16.5" fill="none"/>
      </g>
      <g id="Ellipse_3" data-name="Ellipse 3" transform="translate(358 319)" fill="#fff" stroke="#707070" stroke-width="1">
        <ellipse cx="17.5" cy="17" rx="17.5" ry="17" stroke="none"/>
        <ellipse cx="17.5" cy="17" rx="17" ry="16.5" fill="none"/>
      </g>
      <g id="Ellipse_4" data-name="Ellipse 4" transform="translate(71 367)" fill="#fff" stroke="#707070" stroke-width="1">
        <circle cx="25" cy="25" r="25" stroke="none"/>
        <circle cx="25" cy="25" r="24.5" fill="none"/>
      </g>
      <g id="Ellipse_5" data-name="Ellipse 5" transform="translate(246 29)" fill="#fff" stroke="#707070" stroke-width="1">
        <circle cx="11.5" cy="11.5" r="11.5" stroke="none"/>
        <circle cx="11.5" cy="11.5" r="11" fill="none"/>
      </g>
      <g id="Ellipse_6" data-name="Ellipse 6" transform="translate(310 381)" fill="#fff" stroke="#707070" stroke-width="1">
        <circle cx="11.5" cy="11.5" r="11.5" stroke="none"/>
        <circle cx="11.5" cy="11.5" r="11" fill="none"/>
      </g>
      <g id="Ellipse_7" data-name="Ellipse 7" transform="translate(28 317)" fill="#fff" stroke="#707070" stroke-width="1">
        <circle cx="11.5" cy="11.5" r="11.5" stroke="none"/>
        <circle cx="11.5" cy="11.5" r="11" fill="none"/>
      </g>
      <g id="Ellipse_8" data-name="Ellipse 8" transform="translate(45 141)" fill="#fff" stroke="#707070" stroke-width="1">
        <circle cx="11.5" cy="11.5" r="11.5" stroke="none"/>
        <circle cx="11.5" cy="11.5" r="11" fill="none"/>
      </g>
      <g id="popcorn">
        <g id="Group_42" data-name="Group 42">
          <g id="Group_41" data-name="Group 41">
            <path id="Path_12" data-name="Path 12" d="M348.088,205.944A42.981,42.981,0,0,0,352,188a43.656,43.656,0,0,0-28.072-40.864A46.92,46.92,0,0,0,328,128a47.84,47.84,0,0,0-76.48-38.48,66.232,66.232,0,0,0-11.7-1.52A39.454,39.454,0,0,0,204.7,72.16,39.984,39.984,0,0,0,128,88c0,.264,0,.528.008.808a39.861,39.861,0,0,0-23.84,63.256,51.779,51.779,0,0,0-5.12,45.416A59.934,59.934,0,0,0,113.2,310.968,51.955,51.955,0,0,0,186.232,347a51.986,51.986,0,0,0,100.456-3.392,55.69,55.69,0,0,0,47.224-40.6,51.953,51.953,0,0,0,14.176-97.064Zm-21.376,81.912-6.28.472-1.024,6.216A39.836,39.836,0,0,1,279.816,328h-7.328l-.656,7.28a35.96,35.96,0,0,1-71.744-1.76l-.672-16.144L186.992,327.7A35.976,35.976,0,0,1,128.16,303.12l-.584-6.8-6.808-.5a43.94,43.94,0,0,1-8.68-86.136l9.92-2.792-5.16-8.912a35.856,35.856,0,0,1,3.72-41.264l5-5.872-5.688-5.2A23.735,23.735,0,0,1,112,128c0-13.232,10.768-24,23.5-24.024l12.16.56L144.9,94.072A23.6,23.6,0,0,1,144,88a23.994,23.994,0,0,1,47.464-4.992l1.776,8.376,8.232-2.336a23.126,23.126,0,0,1,27.352,11.3l2.584,4.584,6.776-.744c3.88-.544,7.992.216,12.424,1.784l4.5,1.592,3.536-3.192a31.822,31.822,0,0,1,46.552,43.1l-8.848,11.448,14.4,1.416a27.66,27.66,0,0,1,19.368,44.616l-7.1,9.248,11.184,3.3a35.966,35.966,0,0,1-7.48,70.368Z" fill="#15c8e4"/>
          </g>
        </g>
        <g id="Group_44" data-name="Group 44">
          <g id="Group_43" data-name="Group 43">
            <path id="Path_13" data-name="Path 13" d="M256,128a24,24,0,1,0,24,24A24.029,24.029,0,0,0,256,128Zm0,32a8,8,0,1,1,8-8A8.008,8.008,0,0,1,256,160Z" fill="#15c8e4"/>
          </g>
        </g>
        <g id="Group_46" data-name="Group 46">
          <g id="Group_45" data-name="Group 45">
            <path id="Path_14" data-name="Path 14" d="M168,264a24,24,0,1,0,24,24A24.029,24.029,0,0,0,168,264Zm0,32a8,8,0,1,1,8-8A8.008,8.008,0,0,1,168,296Z" fill="#15c8e4"/>
          </g>
        </g>
        <g id="Group_48" data-name="Group 48">
          <g id="Group_47" data-name="Group 47">
            <path id="Path_15" data-name="Path 15" d="M256,16a24,24,0,1,0,24,24A24.029,24.029,0,0,0,256,16Zm0,32a8,8,0,1,1,8-8A8.008,8.008,0,0,1,256,48Z" fill="#15c8e4"/>
          </g>
        </g>
        <g id="Group_50" data-name="Group 50">
          <g id="Group_49" data-name="Group 49">
            <path id="Path_16" data-name="Path 16" d="M376,304a32,32,0,1,0,32,32A32.032,32.032,0,0,0,376,304Zm0,48a16,16,0,1,1,16-16A16.016,16.016,0,0,1,376,352Z" fill="#15c8e4"/>
          </g>
        </g>
        <g id="Group_52" data-name="Group 52">
          <g id="Group_51" data-name="Group 51">
            <path id="Path_17" data-name="Path 17" d="M320,368a24,24,0,1,0,24,24A24.029,24.029,0,0,0,320,368Zm0,32a8,8,0,1,1,8-8A8.008,8.008,0,0,1,320,400Z" fill="#15c8e4"/>
          </g>
        </g>
        <g id="Group_54" data-name="Group 54">
          <g id="Group_53" data-name="Group 53">
            <path id="Path_18" data-name="Path 18" d="M32,0A32,32,0,1,0,64,32,32.032,32.032,0,0,0,32,0Zm0,48A16,16,0,1,1,48,32,16.016,16.016,0,0,1,32,48Z" fill="#15c8e4"/>
          </g>
        </g>
        <g id="Group_56" data-name="Group 56">
          <g id="Group_55" data-name="Group 55">
            <path id="Path_19" data-name="Path 19" d="M400,112a32,32,0,1,0,32,32A32.032,32.032,0,0,0,400,112Zm0,48a16,16,0,1,1,16-16A16.016,16.016,0,0,1,400,160Z" fill="#15c8e4"/>
          </g>
        </g>
        <g id="Group_58" data-name="Group 58">
          <g id="Group_57" data-name="Group 57">
            <path id="Path_20" data-name="Path 20" d="M56,128a24,24,0,1,0,24,24A24.029,24.029,0,0,0,56,128Zm0,32a8,8,0,1,1,8-8A8.008,8.008,0,0,1,56,160Z" fill="#15c8e4"/>
          </g>
        </g>
        <g id="Group_60" data-name="Group 60">
          <g id="Group_59" data-name="Group 59">
            <path id="Path_21" data-name="Path 21" d="M96,352a40,40,0,1,0,40,40A40.045,40.045,0,0,0,96,352Zm0,64a24,24,0,1,1,24-24A24.029,24.029,0,0,1,96,416Z" fill="#15c8e4"/>
          </g>
        </g>
        <g id="Group_62" data-name="Group 62">
          <g id="Group_61" data-name="Group 61">
            <path id="Path_22" data-name="Path 22" d="M40,304a24,24,0,1,0,24,24A24.029,24.029,0,0,0,40,304Zm0,32a8,8,0,1,1,8-8A8.008,8.008,0,0,1,40,336Z" fill="#15c8e4"/>
          </g>
        </g>
        <g id="Group_64" data-name="Group 64">
          <g id="Group_63" data-name="Group 63">
            <rect id="Rectangle_12" data-name="Rectangle 12" width="16" height="16" transform="translate(328 40)" fill="#15c8e4"/>
          </g>
        </g>
        <g id="Group_66" data-name="Group 66">
          <g id="Group_65" data-name="Group 65">
            <rect id="Rectangle_13" data-name="Rectangle 13" width="16" height="16" transform="translate(216 208)" fill="#15c8e4"/>
          </g>
        </g>
        <g id="Group_68" data-name="Group 68">
          <g id="Group_67" data-name="Group 67">
            <rect id="Rectangle_14" data-name="Rectangle 14" width="16" height="16" transform="translate(304 248)" fill="#15c8e4"/>
          </g>
        </g>
        <g id="Group_70" data-name="Group 70">
          <g id="Group_69" data-name="Group 69">
            <rect id="Rectangle_15" data-name="Rectangle 15" width="16" height="16" transform="translate(104 16)" fill="#15c8e4"/>
          </g>
        </g>
        <g id="Group_72" data-name="Group 72">
          <g id="Group_71" data-name="Group 71">
            <rect id="Rectangle_16" data-name="Rectangle 16" width="16" height="16" transform="translate(112 232)" fill="#15c8e4"/>
          </g>
        </g>
        <g id="Group_74" data-name="Group 74">
          <g id="Group_73" data-name="Group 73">
            <rect id="Rectangle_17" data-name="Rectangle 17" width="16" height="16" transform="translate(240 288)" fill="#15c8e4"/>
          </g>
        </g>
        <g id="Group_76" data-name="Group 76">
          <g id="Group_75" data-name="Group 75">
            <rect id="Rectangle_18" data-name="Rectangle 18" width="16" height="16" transform="translate(184 136)" fill="#15c8e4"/>
          </g>
        </g>
        <g id="Group_78" data-name="Group 78">
          <g id="Group_77" data-name="Group 77">
            <rect id="Rectangle_19" data-name="Rectangle 19" width="16" height="16" transform="translate(152 184)" fill="#15c8e4"/>
          </g>
        </g>
        <g id="Group_80" data-name="Group 80">
          <g id="Group_79" data-name="Group 79">
            <rect id="Rectangle_20" data-name="Rectangle 20" width="16" height="16" transform="translate(392 72)" fill="#15c8e4"/>
          </g>
        </g>
      </g>
    </g>
  </g>
</svg>
