<svg id="pipoca" xmlns="http://www.w3.org/2000/svg" xmlns:xlink="http://www.w3.org/1999/xlink" width="201.265" height="225.878" viewBox="0 0 201.265 225.878">
  <defs>
    <linearGradient id="linear-gradient" x1="0.5" x2="0.5" y2="1" gradientUnits="objectBoundingBox">
      <stop offset="0" stop-color="#f90101"/>
      <stop offset="1" stop-color="#ff5700"/>
    </linearGradient>
    <linearGradient id="linear-gradient-2" x1="0.5" x2="0.5" y2="1" gradientUnits="objectBoundingBox">
      <stop offset="0" stop-color="#f90a00"/>
      <stop offset="1" stop-color="#fe4f00"/>
    </linearGradient>
    <linearGradient id="linear-gradient-3" x1="0.5" x2="0.5" y2="1" gradientUnits="objectBoundingBox">
      <stop offset="0" stop-color="#f90b00"/>
      <stop offset="1" stop-color="#fe5100"/>
    </linearGradient>
    <linearGradient id="linear-gradient-4" x1="0.5" x2="0.5" y2="1" gradientUnits="objectBoundingBox">
      <stop offset="0" stop-color="#f90600"/>
      <stop offset="1" stop-color="#fe4f00"/>
    </linearGradient>
    <linearGradient id="linear-gradient-5" x1="0.5" x2="0.5" y2="1" gradientUnits="objectBoundingBox">
      <stop offset="0" stop-color="#f90600"/>
      <stop offset="1" stop-color="#fe5100"/>
    </linearGradient>
    <linearGradient id="linear-gradient-6" x1="0.5" x2="0.5" y2="1" gradientUnits="objectBoundingBox">
      <stop offset="0" stop-color="#f90800"/>
      <stop offset="1" stop-color="#fe5200"/>
    </linearGradient>
  </defs>
  <path id="Path_1" data-name="Path 1" d="M623,502c-5-19-6-66-6-66l-1.5-31a28.678,28.678,0,0,0-2.5-11.5c-2.625-5.5-8-10.5-8-10.5s4.25-1.5,12,4,20,19,20,19,5.5,1.75,8.75-1S650,395,650,395l-2.25-32.75a64.176,64.176,0,0,1,7.5-21.75C661.313,330.188,672,321,672,321s-5.25,21.25-3.5,32.25a16.932,16.932,0,0,0,14.25,14.5c1.336.128,7.98.594,10.75-3.25,1.78-2.469,7.163-9.425,10.25-15.25,2.777-5.24,1.686,12.8,5.75,20.25,2.165,3.978,2,12.5,22.5,5.5,7.462-2.548,10.354-11.377,11.729-23.5S738.5,321,738.5,321s24.375,9.75,29.5,28.25a35.388,35.388,0,0,1,1.1,10.313C768.731,376.227,759,395,759,395s0,7.5,4,10c2.08,1.3,7.188,3.813,13.75-2.5s9.388-24.375,12.5-22.75c1.619.821,4.574,13.385,3.5,28.25-.665,9.208-7.562,28.25-3.5,31.25s17-21.25,17-21.25.75,31-8.25,63-39,53-39,53-6.75,5.5-20.5,9-33.25,3.75-33.25,3.75-26.75,1.5-42.75-5.75S628,521,623,502Z" transform="translate(-605 -321)" fill="#fff"/>
  <path id="Path_3" data-name="Path 3" d="M648.333,461.333s38.083-5.25,51.333-7,66,7,66,7l2-3.333-2-6-4.333-2.333v-5l-2.667-2L756,440.333h-2v-2.667l-2-2.333h-2.667v-6.667h0L747,425.333,744,424h-8.333v-2s1.333-2-1.333-2H728v-2.333h-3.667l-2.667-2h-2a11.671,11.671,0,0,0-2.333-2A22.061,22.061,0,0,0,714,412a12.517,12.517,0,0,1-3.667,0,13.444,13.444,0,0,0-3.667,0c-1,0-1.833-.917-3,0s-2.25-1.417-4,0-1.417,1.167-3.667,1.667-1.25,4-3,4h-8A15.778,15.778,0,0,0,681,420c-1,1.083.667.667,0,2a9.64,9.64,0,0,1-2.667,3.333c-1.083.833-.333.333-1.667,0S673,423.167,671,424s-2.333,4-2.333,4.667,2.667,3.333,0,4-3.75-.333-5,0A28.294,28.294,0,0,0,659,435.333s.333,1.75-1,2.333-5.333-.667-5.333,0,1,1,0,2.667-1,3.333-2,4.333a10.276,10.276,0,0,1-2.333,1.667s-3.333-3-3,0a59,59,0,0,1,0,8l1.333,2v3.333Z" transform="translate(-605 -321)" fill="url(#linear-gradient)"/>
  <path id="Path_4" data-name="Path 4" d="M647.5,470.342,659,468l2,66.5-5.5-3.746Z" transform="translate(-605 -321)" fill="url(#linear-gradient-2)"/>
  <path id="Path_5" data-name="Path 5" d="M671.5,465h16v76L675,538.669Z" transform="translate(-605 -321)" fill="url(#linear-gradient-3)"/>
  <path id="Path_6" data-name="Path 6" d="M698.5,462.5h15l-2,78.5H702Z" transform="translate(-605 -321)" fill="url(#linear-gradient-4)"/>
  <path id="Path_7" data-name="Path 7" d="M727,465h15l-3,74.088L724.5,541Z" transform="translate(-605 -321)" fill="url(#linear-gradient-5)"/>
  <path id="Path_8" data-name="Path 8" d="M755,468l9.5,2.392L757,532.586l-5,1.914Z" transform="translate(-605 -321)" fill="url(#linear-gradient-6)"/>
</svg>
