<svg id="popcorn" xmlns="http://www.w3.org/2000/svg" width="432" height="432" viewBox="0 0 432 432">
  <g id="Group_42" data-name="Group 42">
    <g id="Group_41" data-name="Group 41">
      <path id="Path_12" data-name="Path 12" d="M348.088,205.944A42.981,42.981,0,0,0,352,188a43.656,43.656,0,0,0-28.072-40.864A46.92,46.92,0,0,0,328,128a47.84,47.84,0,0,0-76.48-38.48,66.232,66.232,0,0,0-11.7-1.52A39.454,39.454,0,0,0,204.7,72.16,39.984,39.984,0,0,0,128,88c0,.264,0,.528.008.808a39.861,39.861,0,0,0-23.84,63.256,51.779,51.779,0,0,0-5.12,45.416A59.934,59.934,0,0,0,113.2,310.968,51.955,51.955,0,0,0,186.232,347a51.986,51.986,0,0,0,100.456-3.392,55.69,55.69,0,0,0,47.224-40.6,51.953,51.953,0,0,0,14.176-97.064Zm-21.376,81.912-6.28.472-1.024,6.216A39.836,39.836,0,0,1,279.816,328h-7.328l-.656,7.28a35.96,35.96,0,0,1-71.744-1.76l-.672-16.144L186.992,327.7A35.976,35.976,0,0,1,128.16,303.12l-.584-6.8-6.808-.5a43.94,43.94,0,0,1-8.68-86.136l9.92-2.792-5.16-8.912a35.856,35.856,0,0,1,3.72-41.264l5-5.872-5.688-5.2A23.735,23.735,0,0,1,112,128c0-13.232,10.768-24,23.5-24.024l12.16.56L144.9,94.072A23.6,23.6,0,0,1,144,88a23.994,23.994,0,0,1,47.464-4.992l1.776,8.376,8.232-2.336a23.126,23.126,0,0,1,27.352,11.3l2.584,4.584,6.776-.744c3.88-.544,7.992.216,12.424,1.784l4.5,1.592,3.536-3.192a31.822,31.822,0,0,1,46.552,43.1l-8.848,11.448,14.4,1.416a27.66,27.66,0,0,1,19.368,44.616l-7.1,9.248,11.184,3.3a35.966,35.966,0,0,1-7.48,70.368Z" fill="#15bae4"/>
    </g>
  </g>
  <g id="Group_44" data-name="Group 44">
    <g id="Group_43" data-name="Group 43">
      <path id="Path_13" data-name="Path 13" d="M256,128a24,24,0,1,0,24,24A24.029,24.029,0,0,0,256,128Zm0,32a8,8,0,1,1,8-8A8.008,8.008,0,0,1,256,160Z" fill="#15bae4"/>
    </g>
  </g>
  <g id="Group_46" data-name="Group 46">
    <g id="Group_45" data-name="Group 45">
      <path id="Path_14" data-name="Path 14" d="M168,264a24,24,0,1,0,24,24A24.029,24.029,0,0,0,168,264Zm0,32a8,8,0,1,1,8-8A8.008,8.008,0,0,1,168,296Z" fill="#15bae4"/>
    </g>
  </g>
  <g id="Group_48" data-name="Group 48">
    <g id="Group_47" data-name="Group 47">
      <path id="Path_15" data-name="Path 15" d="M256,16a24,24,0,1,0,24,24A24.029,24.029,0,0,0,256,16Zm0,32a8,8,0,1,1,8-8A8.008,8.008,0,0,1,256,48Z" fill="#15bae4"/>
    </g>
  </g>
  <g id="Group_50" data-name="Group 50">
    <g id="Group_49" data-name="Group 49">
      <path id="Path_16" data-name="Path 16" d="M376,304a32,32,0,1,0,32,32A32.032,32.032,0,0,0,376,304Zm0,48a16,16,0,1,1,16-16A16.016,16.016,0,0,1,376,352Z" fill="#15bae4"/>
    </g>
  </g>
  <g id="Group_52" data-name="Group 52">
    <g id="Group_51" data-name="Group 51">
      <path id="Path_17" data-name="Path 17" d="M320,368a24,24,0,1,0,24,24A24.029,24.029,0,0,0,320,368Zm0,32a8,8,0,1,1,8-8A8.008,8.008,0,0,1,320,400Z" fill="#15bae4"/>
    </g>
  </g>
  <g id="Group_54" data-name="Group 54">
    <g id="Group_53" data-name="Group 53">
      <path id="Path_18" data-name="Path 18" d="M32,0A32,32,0,1,0,64,32,32.032,32.032,0,0,0,32,0Zm0,48A16,16,0,1,1,48,32,16.016,16.016,0,0,1,32,48Z" fill="#15bae4"/>
    </g>
  </g>
  <g id="Group_56" data-name="Group 56">
    <g id="Group_55" data-name="Group 55">
      <path id="Path_19" data-name="Path 19" d="M400,112a32,32,0,1,0,32,32A32.032,32.032,0,0,0,400,112Zm0,48a16,16,0,1,1,16-16A16.016,16.016,0,0,1,400,160Z" fill="#15bae4"/>
    </g>
  </g>
  <g id="Group_58" data-name="Group 58">
    <g id="Group_57" data-name="Group 57">
      <path id="Path_20" data-name="Path 20" d="M56,128a24,24,0,1,0,24,24A24.029,24.029,0,0,0,56,128Zm0,32a8,8,0,1,1,8-8A8.008,8.008,0,0,1,56,160Z" fill="#15bae4"/>
    </g>
  </g>
  <g id="Group_60" data-name="Group 60">
    <g id="Group_59" data-name="Group 59">
      <path id="Path_21" data-name="Path 21" d="M96,352a40,40,0,1,0,40,40A40.045,40.045,0,0,0,96,352Zm0,64a24,24,0,1,1,24-24A24.029,24.029,0,0,1,96,416Z" fill="#15bae4"/>
    </g>
  </g>
  <g id="Group_62" data-name="Group 62">
    <g id="Group_61" data-name="Group 61">
      <path id="Path_22" data-name="Path 22" d="M40,304a24,24,0,1,0,24,24A24.029,24.029,0,0,0,40,304Zm0,32a8,8,0,1,1,8-8A8.008,8.008,0,0,1,40,336Z" fill="#15bae4"/>
    </g>
  </g>
  <g id="Group_64" data-name="Group 64">
    <g id="Group_63" data-name="Group 63">
      <rect id="Rectangle_12" data-name="Rectangle 12" width="16" height="16" transform="translate(328 40)" fill="#15bae4"/>
    </g>
  </g>
  <g id="Group_66" data-name="Group 66">
    <g id="Group_65" data-name="Group 65">
      <rect id="Rectangle_13" data-name="Rectangle 13" width="16" height="16" transform="translate(216 208)" fill="#15bae4"/>
    </g>
  </g>
  <g id="Group_68" data-name="Group 68">
    <g id="Group_67" data-name="Group 67">
      <rect id="Rectangle_14" data-name="Rectangle 14" width="16" height="16" transform="translate(304 248)" fill="#15bae4"/>
    </g>
  </g>
  <g id="Group_70" data-name="Group 70">
    <g id="Group_69" data-name="Group 69">
      <rect id="Rectangle_15" data-name="Rectangle 15" width="16" height="16" transform="translate(104 16)" fill="#15bae4"/>
    </g>
  </g>
  <g id="Group_72" data-name="Group 72">
    <g id="Group_71" data-name="Group 71">
      <rect id="Rectangle_16" data-name="Rectangle 16" width="16" height="16" transform="translate(112 232)" fill="#15bae4"/>
    </g>
  </g>
  <g id="Group_74" data-name="Group 74">
    <g id="Group_73" data-name="Group 73">
      <rect id="Rectangle_17" data-name="Rectangle 17" width="16" height="16" transform="translate(240 288)" fill="#15bae4"/>
    </g>
  </g>
  <g id="Group_76" data-name="Group 76">
    <g id="Group_75" data-name="Group 75">
      <rect id="Rectangle_18" data-name="Rectangle 18" width="16" height="16" transform="translate(184 136)" fill="#15bae4"/>
    </g>
  </g>
  <g id="Group_78" data-name="Group 78">
    <g id="Group_77" data-name="Group 77">
      <rect id="Rectangle_19" data-name="Rectangle 19" width="16" height="16" transform="translate(152 184)" fill="#15bae4"/>
    </g>
  </g>
  <g id="Group_80" data-name="Group 80">
    <g id="Group_79" data-name="Group 79">
      <rect id="Rectangle_20" data-name="Rectangle 20" width="16" height="16" transform="translate(392 72)" fill="#15bae4"/>
    </g>
  </g>
</svg>
